<?xml version="1.0" encoding="UTF-8"?>
<svg height="600" width="800" xmlns="http://www.w3.org/2000/svg" xmlns:xlink="http://www.w3.org/1999/xlink">
    <g id="Notes" font-family="LucidaGrande, 'Lucida Grande', sans-serif" font-size="13">
        <rect fill="white" height="600.0" width="800.0" x="0.0" y="0.0" />
        <g font-size="13">
            <text x="18.0" y="176.0">Small</text>
            <text x="18.0" y="376.0">Medium</text>
            <text x="18.0" y="576.0">Large</text>
        </g>
        <g font-size="9">
            <text x="250.0" y="30.0">Ultralight</text>
            <text x="450.0" y="30.0">Regular</text>
            <text x="650.0" y="30.0">Black</text>
            <text id="template-version" fill="#505050" text-anchor="end" x="785.0" y="575.0">Template v.3.0</text>
            <a href="https://github.com/swhitty/SwiftDraw">
                <text fill="#505050" text-anchor="end" x="785.0" y="590.0">https://github.com/swhitty/SwiftDraw</text>
            </a>
        </g>
    </g>
    <g id="Guides" stroke="rgb(39, 170, 225)" stroke-width="0.5">
        <path id="Capline-S" d="M18,76 l800,0" />
        <path id="H-reference" d="M85,145.755 L87.685,145.755 L113.369,79.287 L114.052,79.287 L114.052,76 L112.148,76 L85,145.755 Z M95.693,121.536 L130.996,121.536 L130.263,119.313 L96.474,119.313 L95.693,121.536 Z M139.15,145.755 L141.787,145.755 L114.638,76 L113.466,76 L113.466,79.287 L139.15,145.755 Z" stroke="none" transform="translate(0,0)" />
        <path id="Baseline-S" d="M18,146 l800,0" />
        <path id="left-margin-Ultralight-S" d="M228.317,56 l0,110" />
        <path id="right-margin-Ultralight-S" d="M301.683,56 l0,110" />
        <path id="left-margin-Regular-S" d="M428.317,56 l0,110" />
        <path id="right-margin-Regular-S" d="M501.683,56 l0,110" />
        <path id="left-margin-Black-S" d="M628.317,56 l0,110" />
        <path id="right-margin-Black-S" d="M701.683,56 l0,110" />
        <path id="Capline-M" d="M18,276 l800,0" />
        <path id="Baseline-M" d="M18,346 l800,0" />
        <path id="Capline-L" d="M18,476 l800,0" />
        <path id="Baseline-L" d="M18,546 l800,0" />
    </g>
    <g id="Symbols">
        <g id="Ultralight-S" transform="translate(0,0)">
            <path d="M276.875,95.95 C273.388,95.95 270.55,93.113 270.55,89.626 C270.55,89.406 270.373,89.228 270.153,89.228 C269.933,89.228 269.756,89.406 269.756,89.626 C269.756,93.113 266.918,95.95 263.431,95.95 C263.211,95.95 263.034,96.128 263.034,96.348 C263.034,96.567 263.211,96.745 263.431,96.745 C266.918,96.745 269.756,99.583 269.756,103.07 C269.756,103.289 269.933,103.467 270.153,103.467 C270.373,103.467 270.55,103.289 270.55,103.07 C270.55,99.582 273.388,96.745 276.875,96.745 C277.095,96.745 277.272,96.567 277.272,96.348 C277.273,96.128 277.094,95.95 276.875,95.95 Z" />
            <path d="M269.358,96.348 C270.371,95.465 271.102,94.268 271.393,92.908 C270.809,91.951 270.471,90.827 270.471,89.626 C270.471,89.406 270.293,89.228 270.073,89.228 C269.853,89.228 269.675,89.406 269.675,89.626 C269.675,91.874 268.493,93.85 266.718,94.972 C266.478,95.124 266.228,95.26 265.967,95.379 C265.958,95.383 265.948,95.387 265.939,95.392 C265.684,95.507 265.42,95.605 265.149,95.686 C265.13,95.692 265.111,95.697 265.093,95.702 C264.978,95.736 264.861,95.765 264.744,95.792 C264.72,95.797 264.696,95.803 264.673,95.809 C264.541,95.837 264.407,95.861 264.272,95.881 C264.249,95.885 264.226,95.887 264.202,95.89 C264.091,95.906 263.979,95.918 263.866,95.927 C263.827,95.93 263.788,95.933 263.75,95.936 C263.619,95.944 263.488,95.95 263.355,95.95 C263.35,95.95 263.345,95.95 263.34,95.95 C263.12,95.95 262.942,96.128 262.942,96.348 C262.942,96.567 263.12,96.745 263.34,96.745 C263.345,96.745 263.35,96.745 263.355,96.745 C263.488,96.746 263.619,96.751 263.75,96.76 C263.788,96.762 263.827,96.765 263.866,96.769 C263.979,96.778 264.091,96.79 264.202,96.805 C264.226,96.808 264.249,96.811 264.272,96.814 C264.407,96.834 264.541,96.859 264.673,96.887 C264.697,96.892 264.72,96.898 264.744,96.903 C264.861,96.93 264.977,96.96 265.092,96.993 C265.111,96.998 265.13,97.004 265.149,97.009 C265.421,97.09 265.684,97.189 265.939,97.304 C265.948,97.308 265.958,97.313 265.968,97.317 C266.228,97.436 266.478,97.572 266.718,97.723 C268.493,98.845 269.675,100.822 269.675,103.07 C269.675,103.289 269.854,103.467 270.073,103.467 C270.293,103.467 270.472,103.289 270.472,103.07 C270.472,101.869 270.809,100.745 271.393,99.788 C271.102,98.429 270.371,97.231 269.358,96.348 Z" />
            <path d="M282.766,110.023 C283.487,110.023 284.07,109.44 284.07,108.72 C284.07,108.001 283.487,107.417 282.766,107.417 C282.046,107.417 281.462,108.001 281.462,108.72 C281.462,109.44 282.046,110.023 282.766,110.023 Z" />
            <path d="M233.922,141.442 C234.706,141.442 235.341,140.807 235.341,140.023 C235.341,139.24 234.706,138.605 233.922,138.605 C233.138,138.605 232.502,139.24 232.502,140.023 C232.502,140.807 233.138,141.442 233.922,141.442 Z" />
            <path d="M268.611,127.044 C256.34,122.985 247.462,111.406 247.462,97.793 C247.462,90.979 249.644,84.52 253.772,79.116 C254.312,78.409 254.301,77.425 253.746,76.73 C253.191,76.034 252.234,75.805 251.425,76.176 C245.14,79.051 239.81,83.634 236.013,89.429 C232.115,95.378 230.055,102.297 230.055,109.439 C230.055,129.599 246.456,146 266.615,146 C273.757,146 280.677,143.94 286.626,140.042 C292.421,136.244 297.004,130.915 299.879,124.629 C300.249,123.82 300.021,122.863 299.325,122.308 C298.63,121.753 297.646,121.742 296.939,122.282 C291.535,126.41 285.077,128.592 278.262,128.592 C276.377,128.592 274.53,128.422 272.738,128.096" />
            <path d="M289.937,136.713 C283.991,140.613 277.075,142.675 269.937,142.675 C249.787,142.675 233.394,126.266 233.394,106.098 C233.394,98.953 235.453,92.03 239.35,86.079 C240.32,84.597 241.39,83.194 242.551,81.879 C240.054,84.065 237.851,86.591 236.01,89.404 C232.114,95.356 230.055,102.278 230.055,109.423 C230.055,129.592 246.447,146 266.597,146 C273.735,146 280.651,143.939 286.598,140.039 C289.355,138.231 291.837,136.074 293.992,133.633 C292.719,134.747 291.365,135.777 289.937,136.713 Z" />
            <path d="M269.36,113.236 C269.831,113.236 270.213,112.855 270.213,112.385 C270.213,111.914 269.831,111.533 269.36,111.533 C268.888,111.533 268.506,111.914 268.506,112.385 C268.506,112.855 268.888,113.236 269.36,113.236 Z" />
            <path d="M230.69,130.698 C230.279,130.698 229.945,130.365 229.945,129.955 C229.945,129.544 230.279,129.211 230.69,129.211 C231.101,129.211 231.434,129.544 231.434,129.955 C231.434,130.365 231.101,130.698 230.69,130.698 Z" />
            <path d="M279.614,88.563 C280.086,88.563 280.468,88.181 280.468,87.71 C280.468,87.239 280.086,86.857 279.614,86.857 C279.142,86.857 278.76,87.239 278.76,87.71 C278.76,88.181 279.142,88.563 279.614,88.563 Z" />
            <path d="M289.259,84.953 C289.259,83.515 290.425,82.349 291.864,82.349 C293.302,82.349 294.468,83.515 294.468,84.953 C294.468,86.392 293.302,87.558 291.864,87.558 C290.425,87.558 289.259,86.392 289.259,84.953 Z" />
            <path d="M291.538,81.047 L291.538,81.86 C291.538,82.04 291.684,82.186 291.864,82.186 C292.044,82.186 292.189,82.04 292.189,81.86 L292.189,81.047 C292.189,80.867 292.044,80.721 291.864,80.721 C291.684,80.721 291.538,80.867 291.538,81.047 Z" />
            <path d="M291.538,88.047 L291.538,88.86 C291.538,89.04 291.684,89.186 291.864,89.186 C292.044,89.186 292.189,89.04 292.189,88.86 L292.189,88.047 C292.189,87.867 292.044,87.721 291.864,87.721 C291.684,87.721 291.538,87.867 291.538,88.047 Z" />
            <path d="M287.957,85.279 L288.771,85.279 C288.951,85.279 289.096,85.133 289.096,84.953 C289.096,84.774 288.951,84.628 288.771,84.628 L287.957,84.628 C287.777,84.628 287.631,84.774 287.631,84.953 C287.631,85.133 287.777,85.279 287.957,85.279 Z" />
            <path d="M294.957,85.279 L295.771,85.279 C295.951,85.279 296.096,85.133 296.096,84.953 C296.096,84.774 295.951,84.628 295.771,84.628 L294.957,84.628 C294.777,84.628 294.631,84.774 294.631,84.953 C294.631,85.133 294.777,85.279 294.957,85.279 Z" />
            <path d="M288.866,82.416 L289.436,82.986 C289.563,83.113 289.769,83.113 289.896,82.986 C290.023,82.859 290.023,82.653 289.896,82.526 L289.327,81.956 C289.199,81.829 288.993,81.829 288.866,81.956 C288.739,82.083 288.739,82.289 288.866,82.416 Z" />
            <path d="M293.831,87.381 L294.401,87.951 C294.528,88.078 294.734,88.078 294.861,87.951 C294.989,87.824 294.989,87.618 294.861,87.491 L294.292,86.921 C294.165,86.794 293.958,86.794 293.831,86.921 C293.704,87.048 293.704,87.254 293.831,87.381 Z" />
            <path d="M294.401,81.956 L293.831,82.526 C293.704,82.653 293.704,82.859 293.831,82.986 C293.958,83.113 294.165,83.113 294.292,82.986 L294.861,82.416 C294.989,82.289 294.989,82.083 294.861,81.956 C294.734,81.829 294.528,81.829 294.401,81.956 Z" />
            <path d="M289.436,86.921 L288.866,87.491 C288.739,87.618 288.739,87.824 288.866,87.951 C288.993,88.078 289.199,88.078 289.327,87.951 L289.896,87.381 C290.023,87.254 290.023,87.048 289.896,86.921 C289.769,86.794 289.563,86.794 289.436,86.921 Z" />
        </g>
        <g id="Regular-S" transform="translate(0,0)">
            <path d="M476.875,95.95 C473.388,95.95 470.55,93.113 470.55,89.626 C470.55,89.406 470.373,89.228 470.153,89.228 C469.933,89.228 469.756,89.406 469.756,89.626 C469.756,93.113 466.918,95.95 463.431,95.95 C463.211,95.95 463.034,96.128 463.034,96.348 C463.034,96.567 463.211,96.745 463.431,96.745 C466.918,96.745 469.756,99.583 469.756,103.07 C469.756,103.289 469.933,103.467 470.153,103.467 C470.373,103.467 470.55,103.289 470.55,103.07 C470.55,99.582 473.388,96.745 476.875,96.745 C477.095,96.745 477.272,96.567 477.272,96.348 C477.273,96.128 477.094,95.95 476.875,95.95 Z" />
            <path d="M469.358,96.348 C470.371,95.465 471.102,94.268 471.393,92.908 C470.809,91.951 470.471,90.827 470.471,89.626 C470.471,89.406 470.293,89.228 470.073,89.228 C469.853,89.228 469.675,89.406 469.675,89.626 C469.675,91.874 468.493,93.85 466.718,94.972 C466.478,95.124 466.228,95.26 465.967,95.379 C465.958,95.383 465.948,95.387 465.939,95.392 C465.684,95.507 465.42,95.605 465.149,95.686 C465.13,95.692 465.111,95.697 465.093,95.702 C464.978,95.736 464.861,95.765 464.743,95.792 C464.72,95.797 464.696,95.803 464.673,95.809 C464.541,95.837 464.407,95.861 464.272,95.881 C464.249,95.885 464.225,95.887 464.202,95.89 C464.091,95.906 463.979,95.918 463.866,95.927 C463.827,95.93 463.788,95.933 463.75,95.936 C463.619,95.944 463.488,95.95 463.355,95.95 C463.35,95.95 463.345,95.95 463.34,95.95 C463.12,95.95 462.942,96.128 462.942,96.348 C462.942,96.567 463.12,96.745 463.34,96.745 C463.345,96.745 463.35,96.745 463.355,96.745 C463.488,96.746 463.619,96.751 463.75,96.76 C463.788,96.762 463.827,96.765 463.866,96.769 C463.979,96.778 464.091,96.79 464.202,96.805 C464.225,96.808 464.249,96.811 464.272,96.814 C464.407,96.834 464.541,96.859 464.673,96.887 C464.697,96.892 464.72,96.898 464.743,96.903 C464.861,96.93 464.977,96.96 465.092,96.993 C465.111,96.998 465.13,97.004 465.149,97.009 C465.421,97.09 465.684,97.189 465.939,97.304 C465.948,97.308 465.958,97.313 465.968,97.317 C466.228,97.436 466.478,97.572 466.718,97.723 C468.493,98.845 469.675,100.822 469.675,103.07 C469.675,103.289 469.854,103.467 470.073,103.467 C470.293,103.467 470.472,103.289 470.472,103.07 C470.472,101.869 470.809,100.745 471.393,99.788 C471.102,98.429 470.371,97.231 469.358,96.348 Z" />
            <path d="M482.766,110.023 C483.487,110.023 484.07,109.44 484.07,108.72 C484.07,108.001 483.487,107.417 482.766,107.417 C482.046,107.417 481.462,108.001 481.462,108.72 C481.462,109.44 482.046,110.023 482.766,110.023 Z" />
            <path d="M433.922,141.442 C434.706,141.442 435.341,140.807 435.341,140.023 C435.341,139.24 434.706,138.605 433.922,138.605 C433.138,138.605 432.502,139.24 432.502,140.023 C432.502,140.807 433.138,141.442 433.922,141.442 Z" />
            <path d="M468.611,127.044 C456.34,122.985 447.462,111.406 447.462,97.793 C447.462,90.979 449.644,84.52 453.772,79.116 C454.312,78.409 454.301,77.425 453.746,76.73 C453.191,76.034 452.234,75.805 451.425,76.176 C445.14,79.051 439.81,83.634 436.013,89.429 C432.115,95.378 430.055,102.297 430.055,109.439 C430.055,129.599 446.456,146 466.615,146 C473.757,146 480.677,143.94 486.626,140.042 C492.421,136.244 497.004,130.915 499.879,124.629 C500.249,123.82 500.021,122.863 499.325,122.308 C498.63,121.753 497.646,121.742 496.939,122.282 C491.535,126.41 485.077,128.592 478.262,128.592 C476.377,128.592 474.53,128.422 472.737,128.096" />
            <path d="M489.937,136.713 C483.991,140.613 477.075,142.675 469.937,142.675 C449.787,142.675 433.394,126.266 433.394,106.098 C433.394,98.953 435.453,92.03 439.35,86.079 C440.32,84.597 441.39,83.194 442.551,81.879 C440.054,84.065 437.851,86.591 436.01,89.404 C432.114,95.356 430.055,102.278 430.055,109.423 C430.055,129.592 446.447,146 466.597,146 C473.735,146 480.651,143.939 486.598,140.039 C489.355,138.231 491.837,136.074 493.992,133.633 C492.719,134.747 491.365,135.777 489.937,136.713 Z" />
            <path d="M469.36,113.236 C469.831,113.236 470.213,112.855 470.213,112.385 C470.213,111.914 469.831,111.533 469.36,111.533 C468.888,111.533 468.506,111.914 468.506,112.385 C468.506,112.855 468.888,113.236 469.36,113.236 Z" />
            <path d="M430.69,130.698 C430.279,130.698 429.945,130.365 429.945,129.955 C429.945,129.544 430.279,129.211 430.69,129.211 C431.101,129.211 431.434,129.544 431.434,129.955 C431.434,130.365 431.101,130.698 430.69,130.698 Z" />
            <path d="M479.614,88.563 C480.086,88.563 480.468,88.181 480.468,87.71 C480.468,87.239 480.086,86.857 479.614,86.857 C479.142,86.857 478.76,87.239 478.76,87.71 C478.76,88.181 479.142,88.563 479.614,88.563 Z" />
            <path d="M489.259,84.953 C489.259,83.515 490.425,82.349 491.864,82.349 C493.302,82.349 494.468,83.515 494.468,84.953 C494.468,86.392 493.302,87.558 491.864,87.558 C490.425,87.558 489.259,86.392 489.259,84.953 Z" />
            <path d="M491.538,81.047 L491.538,81.86 C491.538,82.04 491.684,82.186 491.864,82.186 C492.044,82.186 492.189,82.04 492.189,81.86 L492.189,81.047 C492.189,80.867 492.044,80.721 491.864,80.721 C491.684,80.721 491.538,80.867 491.538,81.047 Z" />
            <path d="M491.538,88.047 L491.538,88.86 C491.538,89.04 491.684,89.186 491.864,89.186 C492.044,89.186 492.189,89.04 492.189,88.86 L492.189,88.047 C492.189,87.867 492.044,87.721 491.864,87.721 C491.684,87.721 491.538,87.867 491.538,88.047 Z" />
            <path d="M487.957,85.279 L488.771,85.279 C488.951,85.279 489.096,85.133 489.096,84.953 C489.096,84.774 488.951,84.628 488.771,84.628 L487.957,84.628 C487.777,84.628 487.631,84.774 487.631,84.953 C487.631,85.133 487.777,85.279 487.957,85.279 Z" />
            <path d="M494.957,85.279 L495.771,85.279 C495.951,85.279 496.096,85.133 496.096,84.953 C496.096,84.774 495.951,84.628 495.771,84.628 L494.957,84.628 C494.777,84.628 494.631,84.774 494.631,84.953 C494.631,85.133 494.777,85.279 494.957,85.279 Z" />
            <path d="M488.866,82.416 L489.436,82.986 C489.563,83.113 489.769,83.113 489.896,82.986 C490.023,82.859 490.023,82.653 489.896,82.526 L489.327,81.956 C489.199,81.829 488.993,81.829 488.866,81.956 C488.739,82.083 488.739,82.289 488.866,82.416 Z" />
            <path d="M493.831,87.381 L494.401,87.951 C494.528,88.078 494.734,88.078 494.861,87.951 C494.989,87.824 494.989,87.618 494.861,87.491 L494.292,86.921 C494.165,86.794 493.958,86.794 493.831,86.921 C493.704,87.048 493.704,87.254 493.831,87.381 Z" />
            <path d="M494.401,81.956 L493.831,82.526 C493.704,82.653 493.704,82.859 493.831,82.986 C493.958,83.113 494.165,83.113 494.292,82.986 L494.861,82.416 C494.989,82.289 494.989,82.083 494.861,81.956 C494.734,81.829 494.528,81.829 494.401,81.956 Z" />
            <path d="M489.436,86.921 L488.866,87.491 C488.739,87.618 488.739,87.824 488.866,87.951 C488.993,88.078 489.199,88.078 489.327,87.951 L489.896,87.381 C490.023,87.254 490.023,87.048 489.896,86.921 C489.769,86.794 489.563,86.794 489.436,86.921 Z" />
        </g>
        <g id="Black-S" transform="translate(0,0)">
            <path d="M676.875,95.95 C673.388,95.95 670.55,93.113 670.55,89.626 C670.55,89.406 670.373,89.228 670.153,89.228 C669.933,89.228 669.756,89.406 669.756,89.626 C669.756,93.113 666.918,95.95 663.431,95.95 C663.211,95.95 663.034,96.128 663.034,96.348 C663.034,96.567 663.211,96.745 663.431,96.745 C666.918,96.745 669.756,99.583 669.756,103.07 C669.756,103.289 669.933,103.467 670.153,103.467 C670.373,103.467 670.55,103.289 670.55,103.07 C670.55,99.582 673.388,96.745 676.875,96.745 C677.095,96.745 677.272,96.567 677.272,96.348 C677.273,96.128 677.094,95.95 676.875,95.95 Z" />
            <path d="M669.358,96.348 C670.371,95.465 671.102,94.268 671.393,92.908 C670.809,91.951 670.471,90.827 670.471,89.626 C670.471,89.406 670.293,89.228 670.073,89.228 C669.853,89.228 669.675,89.406 669.675,89.626 C669.675,91.874 668.493,93.85 666.718,94.972 C666.478,95.124 666.227,95.26 665.967,95.379 C665.958,95.383 665.948,95.387 665.939,95.392 C665.684,95.507 665.42,95.605 665.149,95.686 C665.13,95.692 665.111,95.697 665.093,95.702 C664.978,95.736 664.861,95.765 664.744,95.792 C664.72,95.797 664.696,95.803 664.673,95.809 C664.541,95.837 664.407,95.861 664.272,95.881 C664.249,95.885 664.226,95.887 664.202,95.89 C664.091,95.906 663.979,95.918 663.866,95.927 C663.827,95.93 663.788,95.933 663.75,95.936 C663.619,95.944 663.488,95.95 663.355,95.95 C663.35,95.95 663.345,95.95 663.34,95.95 C663.12,95.95 662.942,96.128 662.942,96.348 C662.942,96.567 663.12,96.745 663.34,96.745 C663.345,96.745 663.35,96.745 663.355,96.745 C663.488,96.746 663.619,96.751 663.75,96.76 C663.788,96.762 663.827,96.765 663.866,96.769 C663.979,96.778 664.091,96.79 664.202,96.805 C664.226,96.808 664.249,96.811 664.272,96.814 C664.407,96.834 664.541,96.859 664.673,96.887 C664.697,96.892 664.72,96.898 664.744,96.903 C664.861,96.93 664.977,96.96 665.092,96.993 C665.111,96.998 665.13,97.004 665.149,97.009 C665.421,97.09 665.684,97.189 665.939,97.304 C665.948,97.308 665.958,97.313 665.968,97.317 C666.228,97.436 666.478,97.572 666.718,97.723 C668.493,98.845 669.675,100.822 669.675,103.07 C669.675,103.289 669.854,103.467 670.073,103.467 C670.293,103.467 670.472,103.289 670.472,103.07 C670.472,101.869 670.809,100.745 671.393,99.788 C671.102,98.429 670.371,97.231 669.358,96.348 Z" />
            <path d="M682.766,110.023 C683.487,110.023 684.07,109.44 684.07,108.72 C684.07,108.001 683.487,107.417 682.766,107.417 C682.046,107.417 681.462,108.001 681.462,108.72 C681.462,109.44 682.046,110.023 682.766,110.023 Z" />
            <path d="M633.922,141.442 C634.706,141.442 635.341,140.807 635.341,140.023 C635.341,139.24 634.706,138.605 633.922,138.605 C633.138,138.605 632.502,139.24 632.502,140.023 C632.502,140.807 633.138,141.442 633.922,141.442 Z" />
            <path d="M668.611,127.044 C656.34,122.985 647.462,111.406 647.462,97.793 C647.462,90.979 649.644,84.52 653.772,79.116 C654.312,78.409 654.301,77.425 653.746,76.73 C653.191,76.034 652.234,75.805 651.425,76.176 C645.14,79.051 639.81,83.634 636.013,89.429 C632.115,95.378 630.055,102.297 630.055,109.439 C630.055,129.599 646.456,146 666.615,146 C673.757,146 680.677,143.94 686.626,140.042 C692.421,136.244 697.004,130.915 699.879,124.629 C700.249,123.82 700.021,122.863 699.325,122.308 C698.63,121.753 697.646,121.742 696.939,122.282 C691.535,126.41 685.077,128.592 678.262,128.592 C676.377,128.592 674.53,128.422 672.737,128.096" />
            <path d="M689.937,136.713 C683.991,140.613 677.075,142.675 669.937,142.675 C649.787,142.675 633.394,126.266 633.394,106.098 C633.394,98.953 635.453,92.03 639.35,86.079 C640.32,84.597 641.39,83.194 642.551,81.879 C640.054,84.065 637.851,86.591 636.01,89.404 C632.114,95.356 630.055,102.278 630.055,109.423 C630.055,129.592 646.447,146 666.597,146 C673.735,146 680.651,143.939 686.598,140.039 C689.355,138.231 691.837,136.074 693.992,133.633 C692.719,134.747 691.365,135.777 689.937,136.713 Z" />
            <path d="M669.36,113.236 C669.831,113.236 670.213,112.855 670.213,112.385 C670.213,111.914 669.831,111.533 669.36,111.533 C668.888,111.533 668.506,111.914 668.506,112.385 C668.506,112.855 668.888,113.236 669.36,113.236 Z" />
            <path d="M630.69,130.698 C630.279,130.698 629.945,130.365 629.945,129.955 C629.945,129.544 630.279,129.211 630.69,129.211 C631.101,129.211 631.434,129.544 631.434,129.955 C631.434,130.365 631.101,130.698 630.69,130.698 Z" />
            <path d="M679.614,88.563 C680.086,88.563 680.468,88.181 680.468,87.71 C680.468,87.239 680.086,86.857 679.614,86.857 C679.142,86.857 678.76,87.239 678.76,87.71 C678.76,88.181 679.142,88.563 679.614,88.563 Z" />
            <path d="M689.259,84.953 C689.259,83.515 690.425,82.349 691.864,82.349 C693.302,82.349 694.468,83.515 694.468,84.953 C694.468,86.392 693.302,87.558 691.864,87.558 C690.425,87.558 689.259,86.392 689.259,84.953 Z" />
            <path d="M691.538,81.047 L691.538,81.86 C691.538,82.04 691.684,82.186 691.864,82.186 C692.044,82.186 692.189,82.04 692.189,81.86 L692.189,81.047 C692.189,80.867 692.044,80.721 691.864,80.721 C691.684,80.721 691.538,80.867 691.538,81.047 Z" />
            <path d="M691.538,88.047 L691.538,88.86 C691.538,89.04 691.684,89.186 691.864,89.186 C692.044,89.186 692.189,89.04 692.189,88.86 L692.189,88.047 C692.189,87.867 692.044,87.721 691.864,87.721 C691.684,87.721 691.538,87.867 691.538,88.047 Z" />
            <path d="M687.957,85.279 L688.771,85.279 C688.951,85.279 689.096,85.133 689.096,84.953 C689.096,84.774 688.951,84.628 688.771,84.628 L687.957,84.628 C687.777,84.628 687.631,84.774 687.631,84.953 C687.631,85.133 687.777,85.279 687.957,85.279 Z" />
            <path d="M694.957,85.279 L695.771,85.279 C695.951,85.279 696.096,85.133 696.096,84.953 C696.096,84.774 695.951,84.628 695.771,84.628 L694.957,84.628 C694.777,84.628 694.631,84.774 694.631,84.953 C694.631,85.133 694.777,85.279 694.957,85.279 Z" />
            <path d="M688.866,82.416 L689.436,82.986 C689.563,83.113 689.769,83.113 689.896,82.986 C690.023,82.859 690.023,82.653 689.896,82.526 L689.327,81.956 C689.199,81.829 688.993,81.829 688.866,81.956 C688.739,82.083 688.739,82.289 688.866,82.416 Z" />
            <path d="M693.831,87.381 L694.401,87.951 C694.528,88.078 694.734,88.078 694.861,87.951 C694.989,87.824 694.989,87.618 694.861,87.491 L694.292,86.921 C694.165,86.794 693.958,86.794 693.831,86.921 C693.704,87.048 693.704,87.254 693.831,87.381 Z" />
            <path d="M694.401,81.956 L693.831,82.526 C693.704,82.653 693.704,82.859 693.831,82.986 C693.958,83.113 694.165,83.113 694.292,82.986 L694.861,82.416 C694.989,82.289 694.989,82.083 694.861,81.956 C694.734,81.829 694.528,81.829 694.401,81.956 Z" />
            <path d="M689.436,86.921 L688.866,87.491 C688.739,87.618 688.739,87.824 688.866,87.951 C688.993,88.078 689.199,88.078 689.327,87.951 L689.896,87.381 C690.023,87.254 690.023,87.048 689.896,86.921 C689.769,86.794 689.563,86.794 689.436,86.921 Z" />
        </g>
    </g>
</svg>