<svg width="451" height="430" viewBox="0 0 451 430" fill="none" xmlns="http://www.w3.org/2000/svg">
<path d="M307.926 122.552C286.503 122.552 269.075 105.123 269.075 83.7011C269.075 82.3524 267.983 81.2598 266.634 81.2598C265.285 81.2598 264.193 82.3524 264.193 83.7011C264.193 105.125 246.763 122.552 225.341 122.552C223.993 122.552 222.9 123.645 222.9 124.994C222.9 126.342 223.993 127.435 225.341 127.435C246.764 127.435 264.193 144.865 264.193 166.286C264.193 167.634 265.285 168.727 266.634 168.727C267.983 168.727 269.075 167.634 269.075 166.286C269.075 144.863 286.505 127.435 307.926 127.435C309.275 127.435 310.367 126.342 310.367 124.994C310.368 123.645 309.274 122.552 307.926 122.552Z" fill="#565656"/>
<path d="M261.751 124.996C267.973 119.571 272.465 112.217 274.251 103.863C270.661 97.9822 268.59 91.0789 268.59 83.7012C268.59 82.3524 267.495 81.2598 266.144 81.2598C264.793 81.2598 263.699 82.3524 263.699 83.7012C263.699 97.5104 256.438 109.653 245.534 116.544C244.06 117.474 242.52 118.309 240.922 119.04C240.863 119.067 240.804 119.093 240.746 119.12C239.181 119.827 237.561 120.433 235.895 120.931C235.78 120.965 235.663 120.997 235.548 121.029C234.842 121.233 234.127 121.416 233.404 121.58C233.259 121.613 233.115 121.649 232.971 121.681C232.159 121.855 231.339 122.006 230.509 122.129C230.366 122.149 230.222 122.164 230.079 122.183C229.397 122.277 228.706 122.352 228.013 122.408C227.775 122.427 227.537 122.447 227.298 122.462C226.497 122.514 225.69 122.548 224.875 122.55C224.844 122.55 224.813 122.552 224.781 122.552C223.43 122.552 222.336 123.644 222.336 124.993C222.336 126.342 223.43 127.434 224.781 127.434C224.813 127.434 224.844 127.436 224.875 127.436C225.69 127.438 226.495 127.472 227.298 127.524C227.537 127.54 227.776 127.559 228.013 127.578C228.707 127.636 229.397 127.71 230.079 127.803C230.222 127.822 230.366 127.837 230.509 127.857C231.339 127.98 232.159 128.131 232.971 128.305C233.117 128.337 233.26 128.373 233.404 128.406C234.126 128.57 234.84 128.752 235.546 128.957C235.663 128.99 235.781 129.022 235.897 129.057C237.563 129.555 239.182 130.161 240.747 130.868C240.806 130.894 240.865 130.92 240.923 130.946C242.521 131.678 244.061 132.511 245.534 133.443C256.439 140.336 263.7 152.476 263.7 166.286C263.7 167.634 264.794 168.727 266.145 168.727C267.496 168.727 268.591 167.634 268.591 166.286C268.591 158.908 270.662 152.005 274.252 146.124C272.466 137.777 267.974 130.422 261.751 124.996Z" fill="#565656"/>
<path d="M344.116 209C348.54 209 352.126 205.417 352.126 200.996C352.126 196.576 348.54 192.992 344.116 192.992C339.691 192.992 336.105 196.576 336.105 200.996C336.105 205.417 339.691 209 344.116 209Z" fill="#565656"/>
<path d="M44.0692 402C48.8855 402 52.7898 398.099 52.7898 393.287C52.7898 388.474 48.8855 384.573 44.0692 384.573C39.253 384.573 35.3486 388.474 35.3486 393.287C35.3486 398.099 39.253 402 44.0692 402Z" fill="#565656"/>
<path d="M257.16 313.556C181.784 288.624 127.247 217.496 127.247 133.871C127.247 92.011 140.652 52.3359 166.008 19.1416C169.326 14.7972 169.26 8.75473 165.85 4.48157C162.441 0.209287 156.561 -1.19548 151.591 1.08167C112.98 18.7401 80.2421 46.8925 56.9162 82.4913C32.9702 119.036 20.3149 161.541 20.3149 205.413C20.3149 329.25 121.065 430 244.902 430C288.775 430 331.28 417.343 367.825 393.399C403.424 370.073 431.576 337.335 449.235 298.723C451.509 293.752 450.107 287.873 445.835 284.462C441.563 281.054 435.519 280.989 431.175 284.306C397.981 309.664 358.307 323.066 316.445 323.066C304.865 323.066 293.524 322.02 282.51 320.02" fill="#565656"/>
<path d="M388.166 372.954C351.638 396.91 309.155 409.572 265.304 409.572C141.529 409.572 40.8297 308.778 40.8297 184.887C40.8297 140.995 53.4795 98.471 77.4127 61.9109C83.3722 52.8071 89.9491 44.1947 97.0783 36.1157C81.7408 49.5402 68.2094 65.0592 56.8979 82.3395C32.9638 118.9 20.3149 161.424 20.3149 205.315C20.3149 329.207 121.014 430 244.79 430C288.64 430 331.124 417.338 367.651 393.383C384.588 382.274 399.835 369.027 413.071 354.033C405.251 360.876 396.935 367.203 388.166 372.954Z" fill="#565656"/>
<path d="M261.76 228.738C264.654 228.738 267 226.395 267 223.506C267 220.616 264.654 218.273 261.76 218.273C258.865 218.273 256.519 220.616 256.519 223.506C256.519 226.395 258.865 228.738 261.76 228.738Z" fill="#565656"/>
<path d="M24.2163 336C21.691 336 19.644 333.956 19.644 331.435C19.644 328.914 21.691 326.87 24.2163 326.87C26.7415 326.87 28.7886 328.914 28.7886 331.435C28.7886 333.956 26.7415 336 24.2163 336Z" fill="#565656"/>
<path d="M324.751 77.1726C327.65 77.1726 330 74.8264 330 71.9323C330 69.0381 327.65 66.6919 324.751 66.6919C321.853 66.6919 319.503 69.0381 319.503 71.9323C319.503 74.8264 321.853 77.1726 324.751 77.1726Z" fill="#565656"/>
</svg>
